<?xml version="1.0" encoding="UTF-8"?>
<!-- Generated by Pixelmator Pro 3.6.14 -->
<svg width="512" height="512" viewBox="0 0 512 512" xmlns="http://www.w3.org/2000/svg">
    <path id="Rounded-Rectangle" fill="#fb923c" fill-rule="evenodd" stroke="none" d="M 0 462 C 0 489.614227 22.385763 512 50 512 L 462 512 C 489.614227 512 512 489.614227 512 462 L 512 50 C 512 22.385773 489.614227 0 462 0 L 50 0 C 22.385763 0 0 22.385773 0 50 Z"/>
    <path id="headphones24dp5F6368FILL0wght400GRAD0opsz24" fill="#18181b" stroke="none" d="M 191 451 L 104.333336 451 C 92.416672 451 82.215279 446.756958 73.729172 438.270813 C 65.243057 429.784729 61 419.583313 61 407.666656 L 61 256 C 61 228.916656 66.145836 203.548615 76.4375 179.895844 C 86.729164 156.243073 100.63195 135.659729 118.145828 118.145844 C 135.659714 100.631927 156.243057 86.729156 179.895844 76.4375 C 203.548599 66.145813 228.916672 61 256 61 C 283.083344 61 308.451385 66.145813 332.104156 76.4375 C 355.756927 86.729156 376.340271 100.631927 393.854156 118.145844 C 411.368073 135.659729 425.270844 156.243073 435.5625 179.895844 C 445.854187 203.548615 451 228.916656 451 256 L 451 407.666656 C 451 419.583313 446.756958 429.784729 438.270844 438.270813 C 429.784729 446.756958 419.583344 451 407.666656 451 L 321 451 L 321 277.666687 L 407.666656 277.666687 L 407.666656 256 C 407.666656 213.75 392.951385 177.909729 363.520813 148.479187 C 334.090271 119.048615 298.25 104.333344 256 104.333344 C 213.75 104.333344 177.909714 119.048615 148.479172 148.479187 C 119.048615 177.909729 104.333336 213.75 104.333336 256 L 104.333336 277.666687 L 191 277.666687 L 191 451 Z M 147.666672 321 L 104.333336 321 L 104.333336 407.666656 L 147.666672 407.666656 L 147.666672 321 Z M 364.333344 321 L 364.333344 407.666656 L 407.666656 407.666656 L 407.666656 321 L 364.333344 321 Z M 147.666672 321 L 104.333336 321 L 147.666672 321 Z M 364.333344 321 L 407.666656 321 L 364.333344 321 Z"/>
</svg>
