<?xml version="1.0" encoding="UTF-8"?>
<svg width="512" height="512" viewBox="0 0 512 512" xmlns="http://www.w3.org/2000/svg">
    <path id="Path" fill="#2563eb" stroke="none" d="M 40 0 L 472 0 C 494.0914 0 512 17.9086 512 40 L 512 472 C 512 494.0914 494.0914 512 472 512 L 40 512 C 17.908609 512 0 494.0914 0 472 L 0 40 C 0 17.9086 17.908609 0 40 0 Z"/>
    <path id="path1" fill="#2563eb" fill-rule="evenodd" stroke="none" visibility="hidden" d="M 301.036011 400.950012 L 301.036011 456.190002 C 310.019989 460.794006 320.645996 464.246002 332.911987 466.548004 C 345.178009 468.850006 358.105988 470 371.697998 470 C 384.941986 470 397.526001 468.734009 409.446014 466.201996 C 421.365997 463.670013 431.820007 459.497986 440.802002 453.687988 C 449.786011 447.876007 456.89801 440.279999 462.140015 430.899994 C 467.380005 421.522003 470 409.928009 470 396.118011 C 470 386.105988 468.502014 377.329987 465.507996 369.791992 C 462.514008 362.253998 458.194 355.549988 452.549988 349.682007 C 446.90799 343.812012 440.140015 338.548004 432.252014 333.885986 C 424.362 329.226013 415.463989 324.824005 405.558014 320.682007 C 398.302002 317.687988 391.79599 314.783997 386.036011 311.963989 C 380.278015 309.144012 375.381989 306.268005 371.35199 303.332001 C 367.320007 300.39801 364.209991 297.290009 362.022003 294.01001 C 359.834015 290.730011 358.73999 287.019989 358.73999 282.876007 C 358.73999 279.078003 359.717987 275.656006 361.675995 272.605988 C 363.634003 269.556 366.399994 266.937988 369.970001 264.752014 C 373.540009 262.563995 377.915985 260.868011 383.100006 259.65799 C 388.282013 258.450012 394.041992 257.846008 400.376007 257.846008 C 404.984009 257.846008 409.850006 258.191986 414.973999 258.881989 C 420.100006 259.571991 425.253998 260.635986 430.437988 262.075989 C 435.619995 263.514008 440.65799 265.325989 445.553986 267.514008 C 450.447998 269.700012 454.970001 272.231995 459.115997 275.108002 L 459.115997 223.494019 C 450.708008 220.272003 441.522003 217.884003 431.559998 216.330017 C 421.597992 214.776001 410.165985 214 397.265991 214 C 384.135986 214 371.697998 215.410004 359.950012 218.22998 C 348.201996 221.048004 337.864014 225.450012 328.937988 231.434021 C 320.011993 237.419983 312.958008 245.044006 307.773987 254.307983 C 302.59201 263.571991 300 274.64801 300 287.537994 C 300 303.993988 304.75 318.033997 314.253998 329.65799 C 323.756012 341.279999 338.179993 351.119995 357.529999 359.175995 C 365.131989 362.283997 372.216003 365.332001 378.779999 368.325989 C 385.346008 371.317993 391.018005 374.424011 395.798004 377.645996 C 400.578003 380.868011 404.350006 384.377991 407.114014 388.175995 C 409.877991 391.973999 411.26001 396.290009 411.26001 401.123993 C 411.26001 404.690002 410.395996 408 408.667999 411.049988 C 406.941986 414.097992 404.320007 416.746002 400.808014 418.98999 C 397.29599 421.234009 392.917999 422.988007 387.678009 424.253998 C 382.437988 425.519989 376.303986 426.153992 369.278015 426.153992 C 357.299988 426.153992 345.437988 424.053986 333.690002 419.85199 C 321.940002 415.652008 311.056 409.35199 301.036011 400.950012 Z M 208.964005 263.484009 L 280 263.484009 L 280 218 L 82 218 L 82 263.484009 L 152.689407 263.484009 L 152.689407 466 L 208.964005 466 Z"/>
    <path id="DE" fill="#ffffff" fill-rule="evenodd" stroke="none" d="M 348.265991 258.942017 L 472.25 258.942017 L 472.25 218.873993 L 299.881989 218.873993 L 299.881989 471 L 473.384003 471 L 473.384003 430.932007 L 348.265991 430.932007 L 348.265991 359.867981 L 465.824005 359.867981 L 465.824005 324.335999 L 348.265991 324.335999 Z M 69.302002 471 L 195.175995 471 C 239.024002 471 264.350006 458.526001 278.335999 430.932007 C 286.652008 413.166016 288.920013 392.376007 288.920013 324.335999 C 288.920013 280.488007 282.872009 258.942017 264.727997 240.420013 C 250.363998 225.678009 228.440002 218.873993 193.664001 218.873993 L 69.302002 218.873993 Z M 117.685997 429.419983 L 117.685997 260.832001 L 188.75 260.832001 C 211.052002 260.832001 222.770004 264.98999 229.951996 275.195984 C 237.889999 286.15802 239.779999 300.522003 239.779999 344.369995 C 239.779999 387.462006 237.511993 402.582001 229.195999 414.299988 C 221.636002 424.884003 208.783997 429.419983 185.725998 429.419983 Z"/>
</svg>
