<?xml version="1.0" encoding="UTF-8"?>
<!-- Generated by Pixelmator Pro 3.6.14 -->
<svg width="512" height="512" viewBox="0 0 512 512" xmlns="http://www.w3.org/2000/svg">
    <path id="Rounded-Rectangle" fill="#fb923c" fill-rule="evenodd" stroke="none" d="M 0 462 C 0 489.614227 22.385763 512 50 512 L 462 512 C 489.614227 512 512 489.614227 512 462 L 512 50 C 512 22.385773 489.614227 0 462 0 L 50 0 C 22.385763 0 0 22.385773 0 50 Z"/>
    <path id="headphones24dp5F6368FILL0wght400GRAD0opsz24" fill="#18181b" stroke="none" d="M 177.333328 492 L 72.444443 492 C 58.022224 492 45.67593 486.864817 35.40556 476.594452 C 25.135187 466.324066 20 453.977763 20 439.555542 L 20 256 C 20 223.222229 26.227778 192.520376 38.683334 163.89444 C 51.138893 135.268524 67.964818 110.357422 89.16111 89.161133 C 110.357404 67.964803 135.268519 51.138865 163.894455 38.683319 C 192.52037 26.227773 223.222219 20 256 20 C 288.777771 20 319.479624 26.227773 348.10556 38.683319 C 376.731476 51.138865 401.642578 67.964803 422.838867 89.161133 C 444.035197 110.357422 460.861135 135.268524 473.316681 163.89444 C 485.772227 192.520376 492 223.222229 492 256 L 492 439.555542 C 492 453.977763 486.864817 466.324066 476.594452 476.594452 C 466.324087 486.864817 453.977783 492 439.555542 492 L 334.666656 492 L 334.666656 282.222229 L 439.555542 282.222229 L 439.555542 256 C 439.555542 204.866659 421.746287 161.490733 386.127777 125.872223 C 350.509267 90.253713 307.133341 72.444458 256 72.444458 C 204.866659 72.444458 161.490733 90.253713 125.872223 125.872223 C 90.253703 161.490733 72.444443 204.866659 72.444443 256 L 72.444443 282.222229 L 177.333328 282.222229 L 177.333328 492 Z M 124.888885 334.666687 L 72.444443 334.666687 L 72.444443 439.555542 L 124.888885 439.555542 L 124.888885 334.666687 Z M 387.111115 334.666687 L 387.111115 439.555542 L 439.555542 439.555542 L 439.555542 334.666687 L 387.111115 334.666687 Z M 124.888885 334.666687 L 72.444443 334.666687 L 124.888885 334.666687 Z M 387.111115 334.666687 L 439.555542 334.666687 L 387.111115 334.666687 Z"/>
</svg>
